<?xml version="1.0" encoding="UTF-8"?>
<!DOCTYPE svg PUBLIC "-//W3C//DTD SVG 1.1//EN" "http://www.w3.org/Graphics/SVG/1.1/DTD/svg11.dtd">
<!-- Creator: CorelDRAW 2017 -->
<svg xmlns="http://www.w3.org/2000/svg" xml:space="preserve" width="573px" height="232px" version="1.1" style="shape-rendering:geometricPrecision; text-rendering:geometricPrecision; image-rendering:optimizeQuality; fill-rule:evenodd; clip-rule:evenodd"
viewBox="0 0 2929 1185"
 xmlns:xlink="http://www.w3.org/1999/xlink">
 <defs>
  <style type="text/css">
   <![CDATA[
    .fil0 {fill:#FEFEFE}
    .fil2 {fill:#61B5FD}
    .fil1 {fill:#61B5FD}
    .fil5 {fill:#FEFEFE;fill-rule:nonzero}
    .fil3 {fill:#3D5B85;fill-rule:nonzero}
    .fil6 {fill:#3D5B85;fill-rule:nonzero}
    .fil4 {fill:#61B5FD;fill-rule:nonzero}
   ]]>
  </style>
 </defs>
 <g id="Layer_x0020_1">
  <metadata id="CorelCorpID_0Corel-Layer"/>
  <rect class="fil0" width="2929" height="1179"/>
  <path class="fil1" d="M2929 1185l-2 -213c-6,0 -12,-1 -18,-1 -151,-8 -225,48 -273,62 -22,6 -40,6 -60,-1 -16,-5 -31,-12 -44,-19 -79,-38 -186,-56 -289,-33 -148,32 -138,89 -249,35 -117,-57 -264,-60 -385,-6 -29,13 -65,35 -104,27 -18,-4 -32,-11 -46,-18 -85,-39 -168,-60 -285,-41 -69,11 -99,31 -145,50 -45,18 -69,10 -106,-6 -8,-4 -14,-7 -21,-10 -8,-4 -14,-6 -23,-10 -31,-12 -64,-21 -105,-27 -92,-13 -170,5 -237,30 -54,21 -81,52 -151,19 -8,-4 -13,-6 -21,-10 -68,-33 -161,-52 -259,-38 -41,6 -74,15 -105,27l-1 1 0 182 2929 0z"/>
  <g id="_2203307082496">
   <path class="fil2" d="M257 370c-42,76 -108,181 -137,261 -43,121 32,238 137,238 105,0 179,-116 137,-237 -8,-25 -118,-242 -137,-262zm-44 467c94,32 168,-59 125,-146 -6,53 -2,64 -42,108 -8,9 -19,16 -30,22 -23,11 -29,9 -53,16zm94 -313c20,0 37,16 37,37 0,20 -17,37 -37,37 -21,0 -37,-17 -37,-37 0,-21 16,-37 37,-37zm122 -457l184 323c-28,15 -46,45 -46,78 0,50 40,90 90,90 16,0 31,-4 45,-12l95 167c-14,1 -24,12 -24,26 0,14 12,26 26,26 9,0 16,-5 21,-11l65 115 -261 0 -253 -448c0,0 -71,-211 58,-354zm31 278c21,0 37,17 37,37 0,21 -16,37 -37,37 -20,0 -37,-16 -37,-37 0,-20 17,-37 37,-37zm197 60c35,0 63,28 63,63 0,35 -28,63 -63,63 -35,0 -63,-28 -63,-63 0,-35 28,-63 63,-63zm-43 -243c20,0 37,16 37,37 0,20 -17,37 -37,37 -21,0 -37,-17 -37,-37 0,-21 16,-37 37,-37zm106 94c31,0 56,25 56,55 0,31 -25,56 -56,56 -30,0 -55,-25 -55,-56 0,-30 25,-55 55,-55zm78 359c15,0 26,12 26,26 0,15 -11,26 -26,26 -14,0 -26,-11 -26,-26 0,-14 12,-26 26,-26z"/>
   <path class="fil3" d="M1200 205l65 438 -116 0 -6 -79 -41 0 -6 79 -118 0 58 -438 164 0zm-60 282c-6,-50 -11,-111 -17,-184 -12,84 -19,145 -22,184l39 0zm404 156l0 53 -85 0c-21,0 -35,-2 -44,-5 -8,-3 -14,-8 -17,-14 -3,-6 -4,-18 -4,-34 -26,-1 -48,-8 -67,-20 -18,-13 -31,-29 -36,-49 -6,-20 -9,-49 -9,-89l0 -135c0,-30 1,-52 5,-68 3,-15 11,-30 22,-44 11,-14 25,-24 42,-31 17,-7 36,-11 57,-11 26,0 48,5 68,13 20,9 35,20 45,33 10,14 16,28 19,42 3,14 4,36 4,64l0 142c0,39 -2,65 -5,79 -4,14 -11,25 -22,33 -11,8 -25,15 -43,19 1,10 3,16 6,18 4,3 12,4 25,4l39 0zm-114 -325c0,-20 -1,-33 -3,-39 -2,-6 -7,-8 -13,-8 -6,0 -11,2 -14,6 -3,5 -4,19 -4,41l0 204c0,26 1,41 3,47 2,6 6,9 14,9 7,0 12,-3 14,-10 2,-7 3,-23 3,-49l0 -201zm416 -113l0 293c0,33 -1,56 -4,70 -2,13 -8,27 -19,41 -10,14 -24,25 -42,32 -17,8 -38,11 -61,11 -26,0 -49,-4 -69,-13 -20,-8 -35,-20 -45,-33 -10,-14 -16,-29 -18,-44 -2,-16 -2,-48 -2,-98l0 -259 114 0 0 329c0,19 1,31 3,36 2,6 6,8 12,8 7,0 12,-3 14,-9 2,-5 3,-19 3,-41l0 -323 114 0zm240 0l65 438 -116 0 -6 -79 -41 0 -6 79 -118 0 58 -438 164 0zm-60 282c-6,-50 -11,-111 -18,-184 -11,84 -18,145 -21,184l39 0zm343 -282l0 88 -67 0 0 350 -114 0 0 -350 -67 0 0 -88 248 0zm140 0l0 438 -114 0 0 -438 114 0zm311 191l-114 0 0 -76c0,-22 -1,-36 -3,-41 -3,-6 -8,-8 -16,-8 -9,0 -15,3 -18,10 -2,6 -4,21 -4,43l0 203c0,21 2,35 4,42 3,6 8,9 17,9 8,0 14,-3 17,-10 2,-6 3,-21 3,-45l0 -55 114 0 0 17c0,45 -3,77 -9,96 -7,19 -21,36 -43,50 -22,14 -49,21 -81,21 -33,0 -60,-6 -82,-18 -22,-12 -36,-29 -43,-50 -7,-21 -11,-53 -11,-96l0 -128c0,-32 2,-55 4,-71 2,-16 8,-31 19,-46 11,-14 26,-26 45,-34 19,-8 40,-13 65,-13 34,0 61,7 83,20 22,13 36,29 43,48 7,20 10,50 10,91l0 41z"/>
   <path class="fil2" d="M2452 67c32,0 57,25 57,57 0,31 -25,56 -57,56 -31,0 -56,-25 -56,-56 0,-32 25,-57 56,-57z"/>
   <g>
    <path class="fil3" d="M979 763l37 0 0 17 -15 0 0 16 14 0 0 16 -14 0 0 19 16 0 0 17 -38 0 0 -85zm67 0l0 68 13 0 0 17 -35 0 0 -85 22 0zm18 0l37 0 0 17 -14 0 0 16 13 0 0 16 -13 0 0 19 16 0 0 17 -39 0 0 -85zm98 0l-13 38 14 47 -23 0 -9 -37 0 37 -22 0 0 -85 22 0 0 33 10 -33 21 0zm49 0l0 17 -13 0 0 68 -22 0 0 -68 -13 0 0 -17 48 0zm9 68l0 17 -16 0 0 -17 16 0zm94 -68l0 85 -20 0 0 -57 -7 57 -14 0 -8 -56 0 56 -19 0 0 -85 28 0c1,5 2,11 3,18l3 22 5 -40 29 0zm46 0l13 85 -22 0 -2 -15 -8 0 -1 15 -23 0 12 -85 31 0zm-11 55c-1,-10 -2,-22 -4,-36 -2,16 -3,28 -4,36l8 0zm80 -55l-12 38 14 47 -23 0 -9 -37 0 37 -22 0 0 -85 22 0 0 33 10 -33 20 0zm21 68l0 17 -16 0 0 -17 16 0zm76 -18c0,8 -1,14 -1,18 0,3 -2,7 -4,10 -2,2 -5,5 -8,6 -4,2 -8,3 -13,3 -4,0 -8,-1 -12,-3 -4,-1 -7,-3 -9,-6 -2,-3 -3,-6 -4,-10 0,-3 0,-10 0,-18l0 -15c0,-8 0,-14 0,-18 1,-3 2,-7 4,-10 2,-3 5,-5 9,-6 3,-2 7,-3 12,-3 5,0 9,1 12,3 4,1 7,3 9,6 2,3 4,6 4,10 0,3 1,9 1,18l0 15zm-22 -28c0,-4 -1,-7 -1,-8 -1,-1 -1,-1 -3,-1 -1,0 -2,0 -2,1 -1,1 -1,4 -1,8l0 39c0,5 0,8 0,10 1,1 2,1 3,1 2,0 3,0 3,-2 0,-1 1,-4 1,-9l0 -39zm74 -22l0 17 -13 0 0 68 -22 0 0 -68 -13 0 0 -17 48 0zm73 0l0 85 -19 0 0 -57 -8 57 -13 0 -8 -56 0 56 -20 0 0 -85 29 0c1,5 1,11 2,18l4 22 5 -40 28 0zm23 68l0 17 -16 0 0 -17 16 0zm502 -42l-21 0 0 -7c0,-2 0,-4 -1,-5 0,-1 -1,-1 -2,-1 -1,0 -2,0 -3,1 -1,1 -1,3 -1,5 0,3 0,5 1,7 1,1 3,3 6,5 10,6 16,10 19,14 2,4 4,10 4,18 0,6 -1,11 -3,14 -1,2 -4,5 -8,7 -4,2 -9,3 -14,3 -6,0 -11,-2 -15,-4 -4,-2 -7,-5 -8,-8 -1,-4 -2,-9 -2,-15l0 -6 20 0 0 11c0,3 1,5 1,6 1,1 2,1 3,1 2,0 3,0 4,-1 0,-2 1,-3 1,-6 0,-5 -1,-8 -2,-9 -2,-2 -5,-4 -11,-8 -5,-4 -9,-6 -11,-8 -1,-2 -3,-4 -4,-7 -1,-3 -2,-6 -2,-11 0,-6 1,-11 3,-14 1,-3 4,-5 8,-7 3,-2 8,-3 13,-3 6,0 11,1 15,3 4,2 6,4 8,7 1,3 2,8 2,14l0 4zm46 -26l13 85 -22 0 -2 -15 -8 0 -1 15 -23 0 12 -85 31 0zm-11 55c-1,-10 -2,-22 -4,-36 -2,16 -3,28 -4,36l8 0zm77 -55l0 85 -19 0 -12 -39 0 39 -18 0 0 -85 18 0 13 38 0 -38 18 0zm22 68l0 17 -16 0 0 -17 16 0zm70 -68l0 17 -13 0 0 68 -22 0 0 -68 -13 0 0 -17 48 0zm27 0l0 85 -22 0 0 -85 22 0zm-4 -16l0 13 -14 0 0 -13 14 0zm64 53l-22 0 0 -15c0,-4 0,-7 -1,-8 0,-1 -1,-1 -3,-1 -1,0 -3,0 -3,2 0,1 -1,4 -1,8l0 39c0,4 1,7 1,8 0,2 2,2 3,2 2,0 3,0 3,-2 1,-1 1,-4 1,-9l0 -10 22 0 0 3c0,9 0,15 -2,19 -1,3 -4,7 -8,9 -4,3 -9,5 -15,5 -7,0 -12,-2 -16,-4 -5,-2 -7,-5 -9,-10 -1,-4 -2,-10 -2,-18l0 -25c0,-6 0,-11 1,-14 0,-3 1,-6 4,-9 2,-2 5,-5 8,-6 4,-2 8,-3 13,-3 6,0 12,2 16,4 4,3 7,6 8,9 2,4 2,10 2,18l0 8zm22 31l0 17 -16 0 0 -17 16 0zm47 -68l0 68 13 0 0 17 -35 0 0 -85 22 0zm55 0l0 17 -13 0 0 68 -22 0 0 -68 -13 0 0 -17 48 0zm5 0l17 0c10,0 18,1 21,1 4,1 7,3 9,5 2,3 3,5 4,8 0,3 0,8 0,16l0 30c0,7 0,12 -1,15 -1,2 -2,4 -4,6 -1,1 -4,2 -6,3 -3,1 -7,1 -12,1l-28 0 0 -85zm22 15l0 55c3,0 5,0 6,-2 1,-1 1,-4 1,-10l0 -33c0,-4 0,-6 0,-7 0,-1 -1,-2 -2,-3 -1,0 -2,0 -5,0zm51 53l0 17 -16 0 0 -17 16 0zm50 19l0 0c2,0 4,1 5,2 2,2 3,3 3,5 0,3 -1,5 -3,7 -3,2 -5,3 -8,3 -6,0 -9,-3 -10,-8l7 0c1,1 2,2 3,2 2,0 3,-1 3,-3 0,-2 -2,-3 -4,-3l-2 0 0 -6c-5,-1 -10,-2 -13,-5 -3,-2 -5,-5 -6,-8 -1,-4 -1,-8 -1,-13l0 -6 20 0 0 11c0,3 1,5 1,6 1,1 2,1 3,1 3,0 5,-2 5,-7 0,-5 -1,-8 -2,-9 -2,-2 -5,-4 -11,-8 -5,-4 -9,-6 -11,-8 -1,-2 -3,-4 -4,-7 -1,-3 -2,-6 -2,-11 0,-6 1,-11 3,-14 1,-3 4,-5 8,-7 4,-2 8,-3 13,-3 6,0 11,1 15,3 4,2 6,4 8,7 1,3 2,8 2,14l0 4 -21 0 0 -7c0,-2 0,-4 0,-5 -1,-1 -2,-1 -3,-1 -3,0 -4,2 -4,6 0,3 0,5 1,7 1,1 3,3 6,5 10,6 16,10 19,14 2,4 4,10 4,18 0,6 -1,10 -2,13 -1,3 -4,5 -8,7 -4,2 -8,3 -14,4zm75 -87l0 17 -13 0 0 68 -22 0 0 -68 -13 0 0 -17 48 0zm27 0l0 85 -22 0 0 -85 22 0zm-4 -16l0 13 -14 0 0 -13 14 0z"/>
    <path class="fil4" d="M1745 789l-20 0 0 -7c0,-2 0,-4 -1,-5 0,-1 -1,-1 -2,-1 -2,0 -3,0 -3,1 -1,1 -1,3 -1,5 0,3 0,5 1,7 0,1 2,3 6,5 10,6 16,10 18,14 3,4 4,10 4,18 0,6 -1,11 -2,14 -1,2 -4,5 -8,7 -4,2 -9,3 -14,3 -6,0 -11,-2 -15,-4 -4,-2 -7,-5 -8,-8 -2,-4 -2,-9 -2,-15l0 -6 20 0 0 11c0,3 0,5 1,6 0,1 1,1 3,1 1,0 3,0 3,-1 1,-2 1,-3 1,-6 0,-5 0,-8 -2,-9 -1,-2 -5,-4 -10,-8 -6,-4 -9,-6 -11,-8 -2,-2 -3,-4 -4,-7 -1,-3 -2,-6 -2,-11 0,-6 1,-11 2,-14 2,-3 5,-5 8,-7 4,-2 9,-3 14,-3 6,0 10,1 14,3 4,2 7,4 8,7 2,3 2,8 2,14l0 4zm47 -26l13 85 -23 0 -1 -15 -8 0 -1 15 -23 0 11 -85 32 0zm-11 55c-2,-10 -3,-22 -4,-36 -2,16 -3,28 -4,36l8 0zm78 -55l-12 85 -33 0 -13 -85 23 0c3,23 5,43 6,59 1,-16 3,-30 4,-43l1 -16 24 0zm53 0l0 57c0,6 0,11 0,13 -1,3 -2,6 -4,8 -2,3 -5,5 -8,6 -3,2 -7,3 -12,3 -5,0 -10,-1 -13,-3 -4,-2 -7,-4 -9,-6 -2,-3 -3,-6 -3,-9 -1,-3 -1,-9 -1,-19l0 -50 22 0 0 64c0,3 0,6 1,7 0,1 1,1 2,1 1,0 2,0 3,-1 0,-2 0,-4 0,-8l0 -63 22 0zm58 0l0 85 -19 0 -12 -39 0 39 -18 0 0 -85 18 0 13 38 0 -38 18 0zm77 0l0 85 -19 0 0 -57 -8 57 -14 0 -8 -56 0 56 -19 0 0 -85 28 0c1,5 2,11 3,18l3 22 5 -40 29 0zm47 0l12 85 -22 0 -1 -15 -8 0 -1 15 -23 0 11 -85 32 0zm-12 55c-1,-10 -2,-22 -3,-36 -2,16 -4,28 -4,36l7 0z"/>
   </g>
  </g>
  <g id="_2203307085568">
   <path class="fil5" d="M1024 1120l20 0 0 17c0,3 1,4 3,4 3,0 4,-2 4,-8 0,-6 -2,-11 -4,-13 -11,-5 -17,-9 -19,-11 -2,-2 -3,-6 -3,-10l0 -11c0,-11 8,-17 23,-17 15,0 22,6 22,16l0 16 -19 0 0 -9c0,-7 -1,-10 -3,-10 -3,0 -4,2 -4,6 0,4 1,8 2,10 1,2 7,6 18,11 4,4 7,8 7,13l0 13c0,11 -8,17 -24,17 -15,0 -23,-6 -23,-17l0 -17zm97 33l-20 0 0 -3c-2,2 -6,4 -12,4 -4,0 -7,-1 -10,-3 -3,-3 -4,-5 -4,-9l0 -70 19 0 0 65c0,3 2,4 4,4 2,0 3,-1 3,-3l0 -66 20 0 0 81zm77 0l-18 0 0 -4c-1,3 -6,5 -13,5 -10,0 -16,-5 -16,-13l0 -16c0,-4 1,-7 4,-10 3,-2 8,-6 16,-10 4,-2 7,-4 7,-5l0 -12c0,-3 -1,-4 -4,-4 -2,0 -4,3 -4,9 0,2 1,3 1,6 0,2 0,3 0,5l-19 0 0 -16c0,-11 8,-17 23,-17 15,0 23,6 23,17l0 65zm-20 -16l0 -20c-5,1 -7,3 -7,6l0 14c0,3 1,4 3,4 3,0 4,-1 4,-4zm44 16l-20 0 0 -100 20 0 0 100zm44 0l-13 0c-9,0 -14,-2 -16,-5 -1,-2 -2,-7 -2,-15l0 -49 -9 0 0 -12 9 0 0 -17 20 0 0 17 10 0 0 12 -10 0 0 49c0,2 0,4 2,5 1,0 4,1 9,1l0 14zm23 0l-20 0 0 -81 20 0 0 81zm51 0l-20 0 0 -65c0,-3 -1,-4 -4,-4 -2,0 -3,1 -3,4l0 65 -20 0 0 -81 20 0 0 2c3,-2 7,-3 12,-3 4,0 7,1 10,3 3,2 5,5 5,9l0 70zm50 0l-15 0 -1 -3c-4,2 -7,4 -12,4 -5,0 -9,-2 -13,-4 -3,-2 -5,-6 -5,-10l0 -58c0,-3 1,-6 4,-8 3,-2 6,-3 10,-3 6,0 10,1 13,3l0 -21 19 0 0 100zm-19 -16l0 -50c0,-2 -2,-3 -4,-3 -2,0 -3,1 -3,3l0 50c0,3 1,4 3,4 2,0 4,-1 4,-4zm71 16l-18 0 0 -4c-1,3 -6,5 -13,5 -10,0 -16,-5 -16,-13l0 -16c0,-4 1,-7 4,-10 3,-2 8,-6 16,-10 4,-2 7,-4 7,-5l0 -12c0,-3 -1,-4 -4,-4 -2,0 -4,3 -4,9 0,2 0,3 1,6 0,2 0,3 0,5l-19 0 0 -16c0,-11 8,-17 23,-17 15,0 23,6 23,17l0 65zm-20 -16l0 -20c-5,1 -7,3 -7,6l0 14c0,3 1,4 3,4 3,0 4,-1 4,-4zm80 16l-24 0 -12 -30 0 30 -20 0 0 -100 20 0 0 45 10 -26 21 0 -15 35 20 46zm22 -86l-20 0 0 -14 20 0 0 14zm0 86l-20 0 0 -81 20 0 0 81z"/>
   <path class="fil6" d="M1557 1170l0 -12 16 0c5,0 7,-3 7,-7 -2,2 -6,3 -12,3 -4,0 -7,-1 -10,-3 -3,-3 -4,-5 -4,-9l0 -58c0,-8 5,-13 15,-13 3,0 7,1 11,4l3 -3 17 0 0 79c0,6 -1,10 -3,13 -2,4 -9,6 -19,6l-21 0zm23 -32l0 -51c0,-2 -1,-3 -3,-3 -2,0 -4,1 -4,3l0 51c0,3 2,4 4,4 2,0 3,-1 3,-4zm24 -1l0 -49c0,-11 8,-17 24,-17 6,0 11,1 16,4 4,3 6,7 6,13l0 49c0,11 -7,17 -22,17 -16,0 -24,-6 -24,-17zm27 0l0 -49c0,-3 -1,-4 -4,-4 -2,0 -3,1 -3,4l0 49c0,3 1,4 3,4 3,0 4,-1 4,-4zm13 -78c0,2 -1,3 -2,5 -2,1 -3,2 -5,2 -4,0 -7,-3 -7,-7 0,-2 1,-4 2,-5 2,-1 3,-2 5,-2 5,0 7,2 7,7zm-20 0c0,2 -1,4 -2,5 -2,1 -3,2 -5,2 -4,0 -7,-3 -7,-7 0,-2 1,-4 2,-5 2,-1 3,-2 5,-2 5,0 7,2 7,7zm78 94l-48 0 0 -12 23 -56 -22 0 0 -13 45 0 0 11 -23 57 25 0 0 13zm50 0l-20 0 0 -3c-3,2 -7,4 -12,4 -4,0 -8,-1 -11,-3 -2,-3 -4,-5 -4,-9l0 -70 20 0 0 65c0,3 1,4 3,4 3,0 4,-1 4,-3l0 -66 20 0 0 81zm-7 -94c0,2 0,3 -2,5 -1,1 -2,2 -4,2 -5,0 -7,-3 -7,-7 0,-2 0,-4 2,-5 1,-1 3,-2 5,-2 4,0 6,2 6,7zm-19 0c0,2 -1,4 -3,5 -1,1 -3,2 -4,2 -5,0 -7,-3 -7,-7 0,-2 1,-4 2,-5 1,-1 3,-2 5,-2 4,0 7,2 7,7zm76 94l-19 0 0 -65c0,-3 -2,-4 -4,-4 -2,0 -3,1 -3,4l0 65 -20 0 0 -81 20 0 0 2c2,-2 6,-3 12,-3 4,0 7,1 10,3 3,2 4,5 4,9l0 70zm51 0l-20 0 0 -3c-2,2 -6,4 -12,4 -4,0 -7,-1 -10,-3 -3,-3 -4,-5 -4,-9l0 -70 19 0 0 65c0,3 2,4 4,4 2,0 3,-1 3,-3l0 -66 20 0 0 81zm-6 -94c0,2 -1,3 -2,5 -1,1 -3,2 -5,2 -4,0 -7,-3 -7,-7 0,-2 1,-4 2,-5 2,-1 3,-2 5,-2 5,0 7,2 7,7zm-20 0c0,2 -1,4 -2,5 -2,1 -3,2 -5,2 -4,0 -7,-3 -7,-7 0,-2 1,-4 2,-5 2,-1 3,-2 5,-2 5,0 7,2 7,7zm78 94l-48 0 0 -12 23 -56 -22 0 0 -13 44 0 0 11 -22 57 25 0 0 13z"/>
  </g>
 </g>
</svg>
